<?xml version="1.0" standalone="no"?>
<!DOCTYPE svg PUBLIC "-//W3C//DTD SVG 20010904//EN"
 "http://www.w3.org/TR/2001/REC-SVG-20010904/DTD/svg10.dtd">
<svg version="1.0" xmlns="http://www.w3.org/2000/svg"
 width="871.000000pt" height="865.000000pt" viewBox="0 0 871.000000 865.000000"
 preserveAspectRatio="xMidYMid meet">

<g transform="translate(0.000000,865.000000) scale(0.100000,-0.100000)"
fill="#234ebd" stroke="none">
<path d="M2400 8643 c-599 -48 -1188 -323 -1626 -758 -403 -401 -649 -893
-746 -1490 l-22 -140 -4 -1825 c-4 -1905 -2 -1982 39 -2215 94 -527 343 -1018
712 -1401 398 -414 890 -679 1458 -786 l124 -23 1975 -3 c2155 -3 2064 -5
2330 54 758 169 1424 694 1780 1405 136 270 233 594 272 909 19 153 19 3843 0
3975 -90 622 -350 1148 -768 1555 -206 200 -403 342 -643 464 -262 133 -489
207 -808 263 -90 16 -255 17 -2063 18 -1081 1 -1985 0 -2010 -2z m1335 -3066
c16 -23 257 -350 536 -727 278 -377 512 -695 520 -707 8 -13 16 -23 19 -23 3
0 4 337 2 750 l-2 750 405 0 405 0 0 -1380 0 -1380 -386 -2 -385 -3 -183 240
c-173 227 -338 446 -801 1068 l-200 268 -3 -786 -2 -785 -405 0 -405 0 0 1380
0 1380 428 0 427 0 30 -43z"/>
</g>
</svg>
