<?xml version="1.0" standalone="no"?>
<!DOCTYPE svg PUBLIC "-//W3C//DTD SVG 20010904//EN"
 "http://www.w3.org/TR/2001/REC-SVG-20010904/DTD/svg10.dtd">
<svg version="1.0" xmlns="http://www.w3.org/2000/svg"
 width="1024.000000pt" height="1024.000000pt" viewBox="0 0 1024.000000 1024.000000"
 preserveAspectRatio="xMidYMid meet">

<g transform="translate(0.000000,1024.000000) scale(0.100000,-0.100000)"
fill="#000000" stroke="none">
<path d="M0 5120 l0 -5120 5120 0 5120 0 0 5120 0 5120 -5120 0 -5120 0 0
-5120z m3715 2408 c197 -261 1019 -1325 1305 -1688 58 -74 214 -272 345 -440
132 -168 379 -483 549 -700 171 -217 334 -426 363 -464 l53 -68 0 1726 0 1726
430 0 430 0 0 -2465 0 -2465 -384 0 -384 0 -348 453 c-191 248 -408 531 -483
627 -436 565 -588 763 -777 1010 -116 151 -307 401 -425 555 -118 154 -305
399 -414 545 l-200 265 -3 -1727 -2 -1728 -435 0 -435 0 0 2465 0 2465 373 0
373 0 69 -92z"/>
</g>
</svg>
