<svg width="32" height="32" viewBox="0 0 32 32" fill="none" xmlns="http://www.w3.org/2000/svg">
<rect width="32" height="32" rx="16" fill="#212121"/>
<path d="M16.0026 8.13034C18.5677 8.13034 18.8688 8.14178 19.8827 8.18751C20.8203 8.22944 21.3273 8.38571 21.6665 8.51912C22.1163 8.69445 22.4364 8.90027 22.7719 9.23569C23.1073 9.5711 23.3169 9.89127 23.4884 10.341C23.618 10.6803 23.7781 11.1872 23.82 12.1248C23.8658 13.1387 23.8772 13.4398 23.8772 16.005C23.8772 18.5701 23.8658 18.8713 23.82 19.8851C23.7781 20.8228 23.6218 21.3297 23.4884 21.6689C23.3131 22.1187 23.1073 22.4389 22.7719 22.7743C22.4364 23.1097 22.1163 23.3193 21.6665 23.4908C21.3273 23.6204 20.8203 23.7805 19.8827 23.8225C18.8688 23.8682 18.5677 23.8796 16.0026 23.8796C13.4374 23.8796 13.1363 23.8682 12.1224 23.8225C11.1848 23.7805 10.6778 23.6243 10.3386 23.4908C9.88884 23.3155 9.56867 23.1097 9.23325 22.7743C8.89784 22.4389 8.6882 22.1187 8.51668 21.6689C8.38709 21.3297 8.227 20.8228 8.18508 19.8851C8.13934 18.8713 8.1279 18.5701 8.1279 16.005C8.1279 13.4398 8.13934 13.1387 8.18508 12.1248C8.227 11.1872 8.38328 10.6803 8.51668 10.341C8.69201 9.89127 8.89784 9.5711 9.23325 9.23569C9.56867 8.90027 9.88884 8.69064 10.3386 8.51912C10.6778 8.38953 11.1848 8.22944 12.1224 8.18751C13.1363 8.13796 13.4412 8.13034 16.0026 8.13034ZM16.0026 6.3999C13.3955 6.3999 13.0677 6.41134 12.0424 6.45708C11.0209 6.50281 10.3234 6.66671 9.71351 6.90303C9.08079 7.14696 8.54717 7.47857 8.01356 8.01218C7.47994 8.5458 7.15215 9.08323 6.9044 9.71213C6.66808 10.322 6.50419 11.0195 6.45845 12.0448C6.41271 13.0663 6.40128 13.3941 6.40128 16.0012C6.40128 18.6083 6.41271 18.9361 6.45845 19.9614C6.50419 20.9829 6.66808 21.6804 6.9044 22.294C7.14834 22.9267 7.47994 23.4604 8.01356 23.994C8.54717 24.5276 9.0846 24.8554 9.71351 25.1031C10.3234 25.3394 11.0209 25.5033 12.0462 25.5491C13.0715 25.5948 13.3955 25.6063 16.0064 25.6063C18.6173 25.6063 18.9413 25.5948 19.9666 25.5491C20.988 25.5033 21.6856 25.3394 22.2992 25.1031C22.9319 24.8592 23.4656 24.5276 23.9992 23.994C24.5328 23.4604 24.8606 22.9229 25.1083 22.294C25.3446 21.6842 25.5085 20.9867 25.5543 19.9614C25.6 18.9361 25.6114 18.6121 25.6114 16.0012C25.6114 13.3903 25.6 13.0663 25.5543 12.041C25.5085 11.0195 25.3446 10.322 25.1083 9.70832C24.8644 9.0756 24.5328 8.54199 23.9992 8.00837C23.4656 7.47476 22.9281 7.14696 22.2992 6.89921C21.6894 6.6629 20.9919 6.499 19.9666 6.45326C18.9374 6.41134 18.6096 6.3999 16.0026 6.3999Z" fill="#FDFDFD"/>
<path d="M16.0026 8.13034C18.5677 8.13034 18.8688 8.14178 19.8827 8.18751C20.8203 8.22944 21.3273 8.38571 21.6665 8.51912C22.1163 8.69445 22.4364 8.90027 22.7719 9.23569C23.1073 9.5711 23.3169 9.89127 23.4884 10.341C23.618 10.6803 23.7781 11.1872 23.82 12.1248C23.8658 13.1387 23.8772 13.4398 23.8772 16.005C23.8772 18.5701 23.8658 18.8713 23.82 19.8851C23.7781 20.8228 23.6218 21.3297 23.4884 21.6689C23.3131 22.1187 23.1073 22.4389 22.7719 22.7743C22.4364 23.1097 22.1163 23.3193 21.6665 23.4908C21.3273 23.6204 20.8203 23.7805 19.8827 23.8225C18.8688 23.8682 18.5677 23.8796 16.0026 23.8796C13.4374 23.8796 13.1363 23.8682 12.1224 23.8225C11.1848 23.7805 10.6778 23.6243 10.3386 23.4908C9.88884 23.3155 9.56867 23.1097 9.23325 22.7743C8.89784 22.4389 8.6882 22.1187 8.51668 21.6689C8.38709 21.3297 8.227 20.8228 8.18508 19.8851C8.13934 18.8713 8.1279 18.5701 8.1279 16.005C8.1279 13.4398 8.13934 13.1387 8.18508 12.1248C8.227 11.1872 8.38328 10.6803 8.51668 10.341C8.69201 9.89127 8.89784 9.5711 9.23325 9.23569C9.56867 8.90027 9.88884 8.69064 10.3386 8.51912C10.6778 8.38953 11.1848 8.22944 12.1224 8.18751C13.1363 8.13796 13.4412 8.13034 16.0026 8.13034Z" fill="#FDFDFD"/>
<path d="M16.0025 11.0728C13.2811 11.0728 11.0704 13.2796 11.0704 16.0049C11.0704 18.7301 13.2773 20.937 16.0025 20.937C18.7278 20.937 20.9347 18.7301 20.9347 16.0049C20.9347 13.2796 18.7278 11.0728 16.0025 11.0728ZM16.0025 19.2028C14.234 19.2028 12.8008 17.7696 12.8008 16.0011C12.8008 14.2325 14.234 12.7994 16.0025 12.7994C17.7711 12.7994 19.2042 14.2325 19.2042 16.0011C19.2042 17.7696 17.7711 19.2028 16.0025 19.2028Z" fill="#212121"/>
<path d="M21.1291 12.0258C21.7648 12.0258 22.2802 11.5104 22.2802 10.8747C22.2802 10.239 21.7648 9.72363 21.1291 9.72363C20.4934 9.72363 19.978 10.239 19.978 10.8747C19.978 11.5104 20.4934 12.0258 21.1291 12.0258Z" fill="#212121"/>
</svg>
