<svg xmlns="http://www.w3.org/2000/svg" xmlns:xlink="http://www.w3.org/1999/xlink" version="1.1" width="256" height="256" viewBox="0 0 256 256" xml:space="preserve">
<g style="stroke: none; stroke-width: 0; stroke-dasharray: none; stroke-linecap: butt; stroke-linejoin: miter; stroke-miterlimit: 10; fill: none; fill-rule: nonzero; opacity: 1;" transform="translate(1.4065934065934016 1.4065934065934016) scale(2.81 2.81)">
	<path d="M 21.8 84.286 c -1.703 0 -3.425 -0.272 -5.107 -0.83 c -0.329 -0.109 -0.578 -0.381 -0.658 -0.719 s 0.021 -0.692 0.266 -0.938 l 7.111 -7.109 c 1.104 -1.104 1.7 -2.574 1.677 -4.137 c -0.023 -1.562 -0.664 -3.013 -1.804 -4.087 c -2.229 -2.099 -5.895 -1.953 -8.173 0.323 l -6.91 6.91 c -0.245 0.245 -0.6 0.348 -0.938 0.266 c -0.337 -0.079 -0.609 -0.328 -0.719 -0.657 C 4.619 67.504 6.1 61.22 10.411 56.909 c 3 -3.001 6.989 -4.669 11.231 -4.697 c 4.144 -0.027 8.308 -1.831 11.424 -4.948 l 14.198 -14.197 c 3.116 -3.117 4.92 -7.281 4.948 -11.425 c 0.028 -4.243 1.696 -8.231 4.696 -11.231 C 61.217 6.1 67.504 4.618 73.307 6.544 c 0.33 0.109 0.579 0.381 0.658 0.719 c 0.08 0.337 -0.021 0.692 -0.266 0.938 l -7.11 7.11 c -1.104 1.105 -1.7 2.574 -1.677 4.137 c 0.023 1.562 0.664 3.014 1.804 4.087 c 2.23 2.1 5.896 1.954 8.173 -0.323 l 6.911 -6.91 c 0.246 -0.246 0.604 -0.344 0.938 -0.266 c 0.338 0.08 0.609 0.329 0.719 0.658 c 1.926 5.805 0.445 12.088 -3.866 16.399 c -3 3 -6.988 4.668 -11.23 4.697 c -4.144 0.028 -8.308 1.832 -11.425 4.948 L 42.737 56.936 c -3.117 3.116 -4.92 7.28 -4.948 11.424 c -0.028 4.242 -1.696 8.231 -4.697 11.231 C 30.031 82.651 25.973 84.285 21.8 84.286 z M 18.938 81.991 c 4.604 0.951 9.365 -0.439 12.74 -3.814 c 2.626 -2.626 4.086 -6.117 4.111 -9.831 c 0.031 -4.665 2.049 -9.339 5.534 -12.824 l 14.197 -14.198 c 3.486 -3.486 8.161 -5.503 12.825 -5.534 c 3.713 -0.025 7.204 -1.485 9.83 -4.111 c 3.376 -3.376 4.769 -8.136 3.815 -12.741 l -5.688 5.688 c -3.032 3.033 -7.947 3.199 -10.958 0.365 c -1.537 -1.448 -2.4 -3.405 -2.433 -5.513 c -0.031 -2.108 0.772 -4.09 2.263 -5.581 l 5.888 -5.887 c -4.608 -0.956 -9.366 0.44 -12.74 3.815 c -2.626 2.626 -4.086 6.117 -4.11 9.831 c -0.032 4.665 -2.049 9.34 -5.534 12.825 l 0 0 L 34.48 48.678 c -3.485 3.486 -8.16 5.503 -12.825 5.534 c -3.713 0.024 -7.204 1.484 -9.831 4.111 c -3.375 3.376 -4.768 8.135 -3.814 12.74 l 5.688 -5.688 c 3.033 -3.032 7.95 -3.198 10.958 -0.364 c 1.537 1.447 2.401 3.404 2.433 5.512 c 0.031 2.108 -0.772 4.091 -2.263 5.581 L 18.938 81.991 z M 47.971 33.773 h 0.01 H 47.971 z" style="stroke: none; stroke-width: 1; stroke-dasharray: none; stroke-linecap: butt; stroke-linejoin: miter; stroke-miterlimit: 10; fill: rgb(0,0,0); fill-rule: nonzero; opacity: 1;" transform=" matrix(1 0 0 1 0 0) " stroke-linecap="round"/>
	<path d="M 6.04 54.061 c -0.094 0 -0.19 -0.013 -0.285 -0.041 c -0.817 -0.243 -1.673 -0.366 -2.542 -0.366 c -1.771 0 -3.211 -1.44 -3.211 -3.211 V 39.558 c 0 -1.771 1.44 -3.211 3.211 -3.211 c 3.568 0 6.632 -2.047 7.998 -5.343 c 1.365 -3.296 0.646 -6.911 -1.876 -9.434 c -1.252 -1.252 -1.252 -3.289 0 -4.541 l 7.697 -7.696 c 1.252 -1.252 3.289 -1.252 4.541 0 c 2.522 2.522 6.136 3.242 9.432 1.877 c 3.296 -1.365 5.344 -4.43 5.344 -7.998 c 0 -1.771 1.44 -3.211 3.211 -3.211 l 10.884 0 c 1.771 0 3.211 1.44 3.211 3.211 c 0 0.869 0.123 1.725 0.366 2.542 c 0.157 0.529 -0.145 1.086 -0.674 1.243 c -0.537 0.157 -1.086 -0.145 -1.244 -0.674 c -0.297 -1.002 -0.448 -2.049 -0.448 -3.111 C 51.653 2.544 51.11 2 50.442 2 l -10.884 0 c -0.667 0 -1.211 0.543 -1.211 1.211 c 0 4.392 -2.521 8.165 -6.579 9.845 c -4.058 1.68 -8.507 0.794 -11.612 -2.311 c -0.473 -0.472 -1.24 -0.472 -1.713 0 l -7.697 7.696 c -0.472 0.472 -0.472 1.241 0 1.713 c 3.106 3.105 3.991 7.555 2.31 11.613 c -1.681 4.058 -5.453 6.578 -9.845 6.578 h 0 c -0.667 0 -1.211 0.543 -1.211 1.211 v 10.885 c 0 0.668 0.543 1.211 1.211 1.211 c 1.063 0 2.109 0.151 3.112 0.448 c 0.529 0.157 0.831 0.714 0.674 1.244 C 6.869 53.779 6.471 54.061 6.04 54.061 z" style="stroke: none; stroke-width: 1; stroke-dasharray: none; stroke-linecap: butt; stroke-linejoin: miter; stroke-miterlimit: 10; fill: rgb(0,0,0); fill-rule: nonzero; opacity: 1;" transform=" matrix(1 0 0 1 0 0) " stroke-linecap="round"/>
	<path d="M 23.157 48.051 c -0.51 0 -0.945 -0.388 -0.995 -0.905 c -0.351 -3.7 0.218 -7.478 1.646 -10.923 c 3.878 -9.362 13.265 -15.012 23.338 -14.064 c 0.55 0.052 0.954 0.54 0.901 1.089 c -0.052 0.55 -0.533 0.952 -1.089 0.902 c -9.199 -0.865 -17.763 4.293 -21.303 12.838 c -1.302 3.145 -1.822 6.592 -1.502 9.968 c 0.052 0.55 -0.352 1.038 -0.901 1.09 C 23.221 48.05 23.188 48.051 23.157 48.051 z" style="stroke: none; stroke-width: 1; stroke-dasharray: none; stroke-linecap: butt; stroke-linejoin: miter; stroke-miterlimit: 10; fill: rgb(0,0,0); fill-rule: nonzero; opacity: 1;" transform=" matrix(1 0 0 1 0 0) " stroke-linecap="round"/>
	<path d="M 50.441 90 H 39.558 c -1.771 0 -3.211 -1.44 -3.211 -3.211 c 0 -0.869 -0.123 -1.724 -0.366 -2.541 c -0.157 -0.53 0.145 -1.087 0.674 -1.244 c 0.528 -0.158 1.086 0.146 1.243 0.674 c 0.298 1.003 0.449 2.05 0.449 3.111 c 0 0.668 0.543 1.211 1.211 1.211 h 10.884 c 0.668 0 1.211 -0.543 1.211 -1.211 c 0 -4.393 2.521 -8.165 6.579 -9.846 c 4.059 -1.684 8.507 -0.796 11.612 2.311 c 0.472 0.472 1.241 0.472 1.713 0.001 l 7.696 -7.696 c 0.472 -0.473 0.472 -1.24 0 -1.713 c -3.105 -3.105 -3.991 -7.555 -2.311 -11.612 c 1.681 -4.059 5.453 -6.579 9.846 -6.579 c 0.668 0 1.211 -0.543 1.211 -1.211 L 87.998 39.56 c 0 -0.667 -0.543 -1.211 -1.211 -1.211 c -1.061 0 -2.106 -0.151 -3.11 -0.448 c -0.529 -0.157 -0.832 -0.714 -0.675 -1.243 c 0.157 -0.529 0.712 -0.831 1.243 -0.675 c 0.819 0.243 1.675 0.366 2.542 0.366 c 1.771 0 3.211 1.44 3.211 3.211 l 0.001 10.883 c 0 1.771 -1.44 3.211 -3.211 3.211 c -3.568 0 -6.633 2.048 -7.998 5.344 c -1.365 3.297 -0.646 6.911 1.877 9.434 c 1.252 1.252 1.252 3.289 0 4.541 l -7.696 7.696 c -1.252 1.25 -3.289 1.251 -4.541 -0.001 c -2.523 -2.523 -6.137 -3.24 -9.434 -1.877 c -3.296 1.365 -5.344 4.43 -5.344 7.998 C 53.652 88.56 52.212 90 50.441 90 z" style="stroke: none; stroke-width: 1; stroke-dasharray: none; stroke-linecap: butt; stroke-linejoin: miter; stroke-miterlimit: 10; fill: rgb(0,0,0); fill-rule: nonzero; opacity: 1;" transform=" matrix(1 0 0 1 0 0) " stroke-linecap="round"/>
	<path d="M 45.052 67.946 c -0.728 0 -1.459 -0.033 -2.197 -0.104 c -0.55 -0.052 -0.954 -0.539 -0.902 -1.089 s 0.532 -0.976 1.089 -0.901 c 9.206 0.858 17.763 -4.294 21.302 -12.84 c 1.317 -3.181 1.821 -6.533 1.497 -9.965 c -0.053 -0.55 0.352 -1.038 0.901 -1.09 c 0.542 -0.049 1.037 0.352 1.089 0.901 c 0.352 3.708 -0.216 7.484 -1.64 10.919 C 62.599 62.456 54.276 67.946 45.052 67.946 z" style="stroke: none; stroke-width: 1; stroke-dasharray: none; stroke-linecap: butt; stroke-linejoin: miter; stroke-miterlimit: 10; fill: rgb(0,0,0); fill-rule: nonzero; opacity: 1;" transform=" matrix(1 0 0 1 0 0) " stroke-linecap="round"/>
</g>
</svg>