<svg xmlns="http://www.w3.org/2000/svg" xmlns:xlink="http://www.w3.org/1999/xlink" version="1.1" width="256" height="256" viewBox="0 0 256 256" xml:space="preserve">
<g style="stroke: none; stroke-width: 0; stroke-dasharray: none; stroke-linecap: butt; stroke-linejoin: miter; stroke-miterlimit: 10; fill: none; fill-rule: nonzero; opacity: 1;" transform="translate(1.4065934065934016 1.4065934065934016) scale(2.81 2.81)">
	<path d="M 67.626 23.152 c 0.256 0 0.512 -0.098 0.707 -0.293 l 10.2 -10.2 c 0.391 -0.391 0.391 -1.023 0 -1.414 c -0.391 -0.391 -1.023 -0.391 -1.414 0 l -10.2 10.2 c -0.391 0.391 -0.391 1.023 0 1.414 C 67.114 23.054 67.37 23.152 67.626 23.152 z" style="stroke: none; stroke-width: 1; stroke-dasharray: none; stroke-linecap: butt; stroke-linejoin: miter; stroke-miterlimit: 10; fill: rgb(0,0,0); fill-rule: nonzero; opacity: 1;" transform=" matrix(1 0 0 1 0 0) " stroke-linecap="round"/>
	<path d="M 84.647 58.791 c -5.052 -5.054 -12.524 -6.685 -19.201 -4.249 l -8.571 -8.57 c 0.437 -3.048 2.045 -6.135 4.534 -8.624 c 2.801 -2.802 6.363 -4.496 9.772 -4.649 c 0.249 -0.011 0.485 -0.115 0.662 -0.292 l 14.662 -14.662 c 1.933 -1.933 2.997 -4.503 2.997 -7.235 c -0.001 -2.734 -1.065 -5.303 -2.998 -7.235 c -1.932 -1.933 -4.502 -2.997 -7.235 -2.997 c -2.733 0 -5.302 1.065 -7.234 2.997 L 57.372 17.936 c -0.177 0.176 -0.28 0.412 -0.292 0.662 c -0.153 3.408 -1.848 6.97 -4.65 9.771 c -2.488 2.488 -5.575 4.097 -8.623 4.534 l -8.35 -8.349 c 2.439 -6.676 0.806 -14.147 -4.248 -19.201 C 26.295 0.44 19.13 -1.25 12.515 0.946 c -0.329 0.109 -0.578 0.381 -0.658 0.719 s 0.021 0.692 0.266 0.937 l 8.171 8.171 c 2.625 2.625 2.625 6.896 0 9.521 c -2.625 2.624 -6.897 2.624 -9.521 0 l -8.171 -8.171 c -0.245 -0.246 -0.598 -0.346 -0.937 -0.266 c -0.337 0.08 -0.609 0.329 -0.719 0.658 c -2.195 6.617 -0.507 13.78 4.407 18.694 c 5.055 5.055 12.526 6.687 19.201 4.248 l 12.075 12.075 l -24.71 24.71 l -5.15 2.525 c -0.182 0.089 -0.333 0.231 -0.432 0.408 L 1.19 84.347 c -0.219 0.391 -0.152 0.88 0.165 1.196 l 3.178 3.179 c 0.192 0.192 0.448 0.293 0.707 0.293 c 0.167 0 0.335 -0.042 0.489 -0.128 l 9.172 -5.148 c 0.177 -0.1 0.319 -0.25 0.409 -0.432 l 2.525 -5.15 l 24.71 -24.71 l 11.998 11.998 c -2.438 6.676 -0.805 14.147 4.249 19.201 C 62.282 88.137 66.906 90 71.664 90 c 1.941 0 3.904 -0.31 5.821 -0.946 c 0.33 -0.109 0.579 -0.381 0.658 -0.719 c 0.08 -0.338 -0.021 -0.692 -0.266 -0.937 l -8.171 -8.171 c -2.625 -2.625 -2.625 -6.896 0 -9.521 c 2.624 -2.624 6.897 -2.624 9.521 0 l 8.171 8.171 c 0.245 0.245 0.604 0.348 0.937 0.266 c 0.338 -0.079 0.609 -0.328 0.719 -0.658 C 91.249 70.868 89.56 63.705 84.647 58.791 z M 53.843 29.783 c 3.044 -3.044 4.928 -6.923 5.211 -10.701 L 73.448 4.687 c 3.211 -3.21 8.433 -3.208 11.642 0 c 1.555 1.555 2.412 3.623 2.412 5.822 s -0.856 4.266 -2.411 5.822 L 70.697 30.724 c -3.778 0.281 -7.658 2.165 -10.702 5.21 c -3.045 3.045 -4.928 6.924 -5.21 10.702 l -3.353 3.352 l -3.42 -3.421 c 0 0 0 0 0 0 c 0 0 0 -0.001 0 -0.001 l -3.219 -3.218 l -5.003 -5.004 l 3.352 -3.352 C 46.92 34.711 50.799 32.827 53.843 29.783 z M 24.801 33.291 c -0.127 0 -0.255 0.024 -0.377 0.074 c -6.083 2.475 -13.014 1.074 -17.658 -3.569 c -3.981 -3.981 -5.584 -9.622 -4.367 -15.047 l 6.96 6.96 c 3.403 3.404 8.943 3.404 12.348 0 c 3.404 -3.405 3.404 -8.944 0 -12.348 l -6.96 -6.96 c 5.428 -1.218 11.066 0.387 15.047 4.367 c 4.643 4.643 6.044 11.575 3.569 17.658 c -0.151 0.372 -0.065 0.8 0.219 1.084 l 8.108 8.108 l -4.022 4.022 c -0.391 0.391 -0.391 1.023 0 1.414 l 3.72 3.72 l -3.347 3.346 L 25.508 33.584 C 25.317 33.392 25.061 33.291 24.801 33.291 z M 16.304 76.861 c -0.078 0.078 -0.143 0.168 -0.191 0.267 l -2.461 5.02 l -8.24 4.625 l -2.107 -2.107 l 4.625 -8.241 l 5.02 -2.461 c 0.099 -0.048 0.189 -0.112 0.267 -0.19 l 29.587 -29.587 l 3.088 3.088 l -4.053 4.054 c 0 0 -0.001 0.001 -0.001 0.001 L 16.304 76.861 z M 87.601 75.252 l -6.96 -6.959 c -3.403 -3.405 -8.945 -3.405 -12.348 0 c -3.404 3.404 -3.404 8.944 0 12.348 l 6.96 6.96 c -5.429 1.214 -11.066 -0.387 -15.048 -4.368 c -4.642 -4.642 -6.043 -11.573 -3.569 -17.657 c 0.151 -0.373 0.064 -0.8 -0.22 -1.084 L 43.958 52.034 l 3.346 -3.347 l 3.421 3.421 c 0.195 0.195 0.451 0.293 0.707 0.293 c 0.256 0 0.512 -0.098 0.707 -0.293 l 4.022 -4.021 l 8.33 8.329 c 0.285 0.285 0.713 0.369 1.084 0.22 c 6.083 -2.475 13.016 -1.072 17.657 3.569 C 87.214 64.186 88.817 69.827 87.601 75.252 z" style="stroke: none; stroke-width: 1; stroke-dasharray: none; stroke-linecap: butt; stroke-linejoin: miter; stroke-miterlimit: 10; fill: rgb(0,0,0); fill-rule: nonzero; opacity: 1;" transform=" matrix(1 0 0 1 0 0) " stroke-linecap="round"/>
</g>
</svg>