<svg xmlns="http://www.w3.org/2000/svg" xmlns:xlink="http://www.w3.org/1999/xlink" version="1.1" width="256" height="256" viewBox="0 0 256 256" xml:space="preserve">
<g style="stroke: none; stroke-width: 0; stroke-dasharray: none; stroke-linecap: butt; stroke-linejoin: miter; stroke-miterlimit: 10; fill: none; fill-rule: nonzero; opacity: 1;" transform="translate(1.4065934065934016 1.4065934065934016) scale(2.81 2.81)">
	<rect x="2.88" y="5.27" rx="0" ry="0" width="20.25" height="16.52" style="stroke: none; stroke-width: 1; stroke-dasharray: none; stroke-linecap: butt; stroke-linejoin: miter; stroke-miterlimit: 10; fill: rgb(0,0,0); fill-rule: nonzero; opacity: 1;" transform=" matrix(0.7071 -0.7071 0.7071 0.7071 -5.7631 13.1573) "/>
	<polygon points="70.18,83.54 89.29,89.82 83.01,70.72 " style="stroke: none; stroke-width: 1; stroke-dasharray: none; stroke-linecap: butt; stroke-linejoin: miter; stroke-miterlimit: 10; fill: rgb(0,0,0); fill-rule: nonzero; opacity: 1;" transform="  matrix(1 0 0 1 0 0) "/>
	<path d="M 80.794 67.01 L 70.312 56.528 L 57.937 44.153 L 28.961 15.177 L 14.643 29.496 l 28.976 28.976 l 12.375 12.375 l 10.482 10.482 L 80.794 67.01 z M 62.028 64.656 c -0.536 0 -1.071 -0.204 -1.48 -0.613 l -30.86 -30.86 c -0.818 -0.817 -0.818 -2.143 0 -2.96 c 0.817 -0.818 2.143 -0.818 2.96 0 l 30.86 30.86 c 0.818 0.818 0.818 2.142 0 2.96 C 63.099 64.451 62.564 64.656 62.028 64.656 z" style="stroke: none; stroke-width: 1; stroke-dasharray: none; stroke-linecap: butt; stroke-linejoin: miter; stroke-miterlimit: 10; fill: rgb(0,0,0); fill-rule: nonzero; opacity: 1;" transform=" matrix(1 0 0 1 0 0) " stroke-linecap="round"/>
	<path d="M 49.84 30.137 l 10.201 10.201 l 4.386 -4.386 c 6.713 2.731 14.7 1.374 20.147 -4.073 c 5.14 -5.14 6.62 -12.538 4.477 -18.997 l -8.783 8.783 c -3.246 3.246 -8.508 3.246 -11.754 0 c -3.246 -3.246 -3.246 -8.509 0 -11.754 l 8.783 -8.783 c -6.459 -2.143 -13.857 -0.663 -18.997 4.477 c -5.447 5.447 -6.804 13.433 -4.073 20.147 L 49.84 30.137 z" style="stroke: none; stroke-width: 1; stroke-dasharray: none; stroke-linecap: butt; stroke-linejoin: miter; stroke-miterlimit: 10; fill: rgb(0,0,0); fill-rule: nonzero; opacity: 1;" transform=" matrix(1 0 0 1 0 0) " stroke-linecap="round"/>
	<path d="M 39.803 60.576 L 29.603 50.375 l -3.673 3.673 c -6.713 -2.731 -14.7 -1.374 -20.146 4.073 c -5.14 5.14 -6.62 12.538 -4.477 18.997 l 8.783 -8.783 c 3.246 -3.246 8.509 -3.246 11.754 0 c 3.246 3.246 3.246 8.509 0 11.754 l -8.783 8.783 c 6.459 2.143 13.857 0.663 18.997 -4.477 c 5.447 -5.447 6.803 -13.433 4.073 -20.147 L 39.803 60.576 z" style="stroke: none; stroke-width: 1; stroke-dasharray: none; stroke-linecap: butt; stroke-linejoin: miter; stroke-miterlimit: 10; fill: rgb(0,0,0); fill-rule: nonzero; opacity: 1;" transform=" matrix(1 0 0 1 0 0) " stroke-linecap="round"/>
</g>
</svg>